# xmcd
#
# Track frame offsets:
#	150
#	24117
#	50350
#	79666
#	103222
#	127439
#	148242
#	176889
#	224365
#	250602
#
# Disc length: 3705 seconds
#
# Revision: 1
# Processed by: cddbd v1.5.1PL0 Copyright (c) Steve Scherf et al.
# Submitted via: EasyCDDAExtractor 8.0.2.1
#
DISCID=920e770a
DTITLE=Deep Purple - SECC Glasgow 08-11-04 Disc 1
DYEAR=2004
DGENRE=Hard Rock
TTITLE0=Silver Tongue
TTITLE1=Woman From Tokyo
TTITLE2=I Got Your Number
TTITLE3=Strange Kind Of Woman
TTITLE4=Bananas
TTITLE5=Demon's Eye
TTITLE6=Knocking At Your Back Door
TTITLE7=Contact Lost - The Well Dressed Guitar
TTITLE8=Don Airey Keyboard Solo
TTITLE9=Perfect Strangers
EXTD=
EXTT0=
EXTT1=
EXTT2=
EXTT3=
EXTT4=
EXTT5=
EXTT6=
EXTT7=
EXTT8=
EXTT9=
PLAYORDER=
